<svg xmlns="http://www.w3.org/2000/svg" viewBox="0 0 145 94"><defs><style>.cls-1{fill:#e11633;}.cls-2{fill:#fff;}</style></defs><title>news-more</title><g id="Слой_2" data-name="Слой 2"><g id="content"><path class="cls-1" d="M145,0V94H0S101,94,145,0Z"/><path class="cls-2" d="M132,72.59l-7.26,7.26a1.48,1.48,0,0,1-1,.41,1.46,1.46,0,0,1-1-.41l-.84-.84a1.43,1.43,0,0,1,0-2l3.27-3.27H117.3a1.34,1.34,0,0,1-1.3-1.43V70.86a1.34,1.34,0,0,1,1.3-1.43h7.85l-3.27-3.28a1.4,1.4,0,0,1,0-2l.84-.84a1.42,1.42,0,0,1,1-.42,1.45,1.45,0,0,1,1,.42L132,70.57a1.39,1.39,0,0,1,.41,1A1.43,1.43,0,0,1,132,72.59Z"/></g></g></svg>