<svg xmlns="http://www.w3.org/2000/svg" viewBox="0 0 25.71 25.71"><defs><style>.cls-1{fill:#e11633;}</style></defs><title>testimonial_right</title><g id="Слой_2" data-name="Слой 2"><g id="content"><path class="cls-1" d="M12.86,25.71A12.86,12.86,0,1,1,25.71,12.86,12.86,12.86,0,0,1,12.86,25.71ZM21.21,12.1l-1.52-1.52L13.63,4.52a1.09,1.09,0,0,0-1.51,0L10.6,6a1.09,1.09,0,0,0,0,1.51l3.16,3.16H5.36a1.08,1.08,0,0,0-1.07,1.07v2.14A1.08,1.08,0,0,0,5.36,15h8.4L10.6,18.16a1,1,0,0,0,0,1.51l1.52,1.52a1.09,1.09,0,0,0,1.51,0l6.06-6.06,1.52-1.52a1.09,1.09,0,0,0,0-1.51Z"/></g></g></svg>