<svg xmlns="http://www.w3.org/2000/svg" viewBox="0 0 25.71 25.71"><defs><style>.cls-1{fill:#838383;}</style></defs><title>testimonial_left</title><g id="Слой_2" data-name="Слой 2"><g id="content"><path class="cls-1" d="M12.86,25.71A12.86,12.86,0,1,1,25.71,12.86,12.86,12.86,0,0,1,12.86,25.71Zm8.57-13.93a1.08,1.08,0,0,0-1.07-1.07H12l3.16-3.16a1,1,0,0,0,0-1.51L13.59,4.52a1.09,1.09,0,0,0-1.51,0L6,10.58,4.5,12.1a1.09,1.09,0,0,0,0,1.51L6,15.13l6.06,6.06a1.09,1.09,0,0,0,1.51,0l1.52-1.52a1.09,1.09,0,0,0,0-1.51L12,15h8.4a1.08,1.08,0,0,0,1.07-1.07Z"/></g></g></svg>