<svg xmlns="http://www.w3.org/2000/svg" viewBox="0 0 90 53.03"><defs><style>.cls-1{fill:#34307d;opacity:0.1;}.cls-2{fill:#c2b8b9;}.cls-3{fill:#d6ced1;}.cls-4{fill:#ece7ea;}.cls-5{fill:#e11633;}</style></defs><title>catalog-news</title><g id="Слой_2" data-name="Слой 2"><g id="content"><rect class="cls-1" x="6.92" y="1.25" width="76.15" height="10.38" rx="5.19" ry="5.19"/><rect class="cls-1" x="19.8" y="42.65" width="65.08" height="10.38" rx="5.19" ry="5.19"/><rect class="cls-1" x="3.6" y="42.65" width="10.38" height="10.38" rx="5.19" ry="5.19"/><path class="cls-1" d="M60.58,22H17.31a5.19,5.19,0,0,0,0-10.38H60.58a5.19,5.19,0,1,0,0,10.38Z"/><path class="cls-1" d="M76.78,42.78H33.51a5.19,5.19,0,0,0,0-10.38H76.78a5.19,5.19,0,1,0,0,10.38Z"/><rect class="cls-1" y="22.02" width="90" height="10.38" rx="5.19" ry="5.19"/><path class="cls-2" d="M75.07,31.57,57,42.92l.55-6.07a11.57,11.57,0,0,0-4.84,8.77c0,3.15,2.18,4.35,4.84,2.67l17.47-11a5.79,5.79,0,0,0,2.42-4.39C77.49,31.33,76.4,30.73,75.07,31.57Z"/><polygon class="cls-3" points="39.29 6.47 23.44 23.01 56.48 43.82 77.39 30.46 39.29 6.47"/><path class="cls-4" d="M56.28,50a7.17,7.17,0,0,1-1.76-1.76,1.22,1.22,0,0,1-.4-.13,2.44,2.44,0,0,1-.88-2.22A10.53,10.53,0,0,1,57.6,38l18.9-11.9a1.06,1.06,0,0,0,0-1.79h0L40.59,1.72,38.6.47,18.9,12.88a10.09,10.09,0,0,0-4.3,7.79,10.09,10.09,0,0,0,4.3,7.79L52.81,49.8l.29.18a3.84,3.84,0,0,0,3.27.11Z"/><polygon class="cls-5" points="45.28 18.08 34.8 11.51 25.88 17.13 36.52 23.74 45.28 18.08"/><path d="M77.75,30.82a2.69,2.69,0,0,0-2.77.26L57.19,42.29a1.06,1.06,0,1,0,1.13,1.79l17.8-11.21c.38-.24.58-.22.61-.2s.15.18.15.63A4.66,4.66,0,0,1,75,36.74L57.73,47.6a2.39,2.39,0,0,1-2.3.44,2.39,2.39,0,0,1-.86-2.18,10.38,10.38,0,0,1,4.29-7.77L78.51,25.72a1.06,1.06,0,0,0,0-1.79L40.76.16a1.06,1.06,0,0,0-1.13,0L19.75,12.68a11.83,11.83,0,0,0-5,9.13v.57a11.83,11.83,0,0,0,5,9.13L49.32,50.12a1.06,1.06,0,0,0,1.13-1.79L20.88,29.71a9.8,9.8,0,0,1-4-7.33v-.57a9.8,9.8,0,0,1,4-7.33L40.2,2.31,76,24.83,57.73,36.3a12.39,12.39,0,0,0-5.28,9.56,4.31,4.31,0,0,0,2,4,3.38,3.38,0,0,0,1.65.42,5.32,5.32,0,0,0,2.8-.92L76.12,38.53A6.78,6.78,0,0,0,79,33.3,2.69,2.69,0,0,0,77.75,30.82Z"/><path d="M64.68,25.89a1.06,1.06,0,0,0,.57-2L40.76,8.51a1.06,1.06,0,1,0-1.13,1.79L64.12,25.72A1.06,1.06,0,0,0,64.68,25.89Z"/><path d="M60.45,28.7a1.06,1.06,0,0,0,.56-2L50.67,20.26a1.06,1.06,0,0,0-1.13,1.8l10.34,6.49A1.05,1.05,0,0,0,60.45,28.7Z"/><path d="M46.35,23a1.06,1.06,0,1,0-1.12,1.8l10.42,6.51a1.06,1.06,0,1,0,1.12-1.8Z"/><path d="M35.23,11.28l-8.81,5.55a1.06,1.06,0,0,0,0,1.8l10.5,6.53a1.06,1.06,0,0,0,1.13,0l2.34-1.51a1.06,1.06,0,1,0-1.15-1.78L37.48,23,29,17.72l6.81-4.29,8.37,5.25-1,.63a1.06,1.06,0,0,0,1.15,1.78l2.37-1.53a1.06,1.06,0,0,0,0-1.79L36.36,11.28A1.06,1.06,0,0,0,35.23,11.28Z"/><path d="M52.87,33.82a1.06,1.06,0,0,0-.34-1.46L42,25.83a1.06,1.06,0,0,0-1.12,1.8l10.5,6.53a1.06,1.06,0,0,0,1.46-.34Z"/><path d="M22.28,20.26a1.06,1.06,0,0,0,.34,1.46L48.54,37.84A1.06,1.06,0,0,0,49.66,36L23.74,19.92A1.06,1.06,0,0,0,22.28,20.26Z"/></g></g></svg>