<svg xmlns="http://www.w3.org/2000/svg" viewBox="0 0 120 120"><defs><style>.cls-1,.cls-2,.cls-3{fill:#ed3232;}.cls-1{opacity:0.2;}.cls-2{opacity:0.5;}.cls-4{fill:#fff;}</style></defs><title>done!</title><g id="Слой_2" data-name="Слой 2"><g id="menu"><circle class="cls-1" cx="60" cy="60" r="60"/><circle class="cls-2" cx="60" cy="60" r="52.5"/><circle class="cls-3" cx="60" cy="60" r="45"/><path class="cls-4" d="M76.68,54.6,60.52,70.76l-3,3a2.16,2.16,0,0,1-3,0l-3-3-8.08-8.08a2.16,2.16,0,0,1,0-3l3-3a2.15,2.15,0,0,1,3,0L56,63.19,70.61,48.52a2.16,2.16,0,0,1,3,0l3,3a2.15,2.15,0,0,1,0,3Z"/></g></g></svg>