<svg xmlns="http://www.w3.org/2000/svg" viewBox="0 0 90 51.78"><defs><style>.cls-1{fill:#34307d;opacity:0.1;}.cls-2{fill:#e11633;}</style></defs><title>gallery</title><g id="Слой_2" data-name="Слой 2"><g id="content"><rect class="cls-1" x="6.92" width="76.15" height="10.38" rx="5.19" ry="5.19"/><rect class="cls-1" x="19.8" y="41.4" width="65.08" height="10.38" rx="5.19" ry="5.19"/><rect class="cls-1" x="3.6" y="41.4" width="10.38" height="10.38" rx="5.19" ry="5.19"/><path class="cls-1" d="M60.58,20.77H17.31a5.19,5.19,0,0,0,0-10.38H60.58a5.19,5.19,0,1,0,0,10.38Z"/><rect class="cls-1" y="20.77" width="90" height="10.38" rx="5.19" ry="5.19"/><path d="M64.88,7V45a1.42,1.42,0,0,1-1.44,1.44H25.34a.88.88,0,0,1-.32,0,.11.11,0,0,0-.07,0s0,0-.07,0-.1,0-.14-.07a0,0,0,0,0,0,0l0,0s-.07,0-.11-.07a0,0,0,0,0,0,0L24.46,46l0,0c0-.07-.1-.1-.14-.17l0,0s0,0,0-.07,0,0,0-.07a2.72,2.72,0,0,1-.11-.25s0,0,0,0v-.07c0-.11,0-.25,0-.35V7a1.42,1.42,0,0,1,1.44-1.44h38A1.42,1.42,0,0,1,64.88,7ZM62.1,43.5V36l-8.31-7.92L30.27,43.5ZM62.1,32V8.43H26.89V32.79L40,24.55a1.46,1.46,0,0,1,1.8.21l4.68,4.72L53.15,25a1.48,1.48,0,0,1,1.8.17ZM44,31.1l-3.45-3.48L26.89,36.21v6.06Z"/><path d="M48.54,15.86a2.32,2.32,0,1,1-2.32,2.32A2.32,2.32,0,0,1,48.54,15.86Z"/><polygon class="cls-2" points="40.51 27.62 43.96 31.1 26.89 42.27 26.89 36.21 40.51 27.62"/></g></g></svg>