<svg xmlns="http://www.w3.org/2000/svg" viewBox="0 0 42.86 34.29"><defs><style>.cls-1{fill:#fff;}</style></defs><title>photo</title><g id="Слой_2" data-name="Слой 2"><g id="content"><path class="cls-1" d="M42.86,30.72a3.58,3.58,0,0,1-3.57,3.57H3.57A3.58,3.58,0,0,1,0,30.72V3.57A3.58,3.58,0,0,1,3.57,0H39.29a3.58,3.58,0,0,1,3.57,3.57ZM3.57,2.86a.74.74,0,0,0-.71.71V30.72a.74.74,0,0,0,.71.71H39.29a.73.73,0,0,0,.71-.71V3.57a.73.73,0,0,0-.71-.71ZM10,14.29A4.29,4.29,0,1,1,14.29,10,4.29,4.29,0,0,1,10,14.29ZM37.15,28.57H5.71V24.29l7.14-7.14,3.57,3.57L27.86,9.29l9.29,9.29Z"/></g></g></svg>