<svg xmlns="http://www.w3.org/2000/svg" viewBox="0 0 86.94 24.67"><defs><style>.cls-1,.cls-2{fill:#dd192b;}.cls-1{fill-rule:evenodd;}</style></defs><title>logo-sun</title><g id="Слой_2" data-name="Слой 2"><g id="footer"><path id="circle" class="cls-1" d="M12.34,0A12.34,12.34,0,1,1,0,12.34,12.34,12.34,0,0,1,12.34,0Z"/><path class="cls-2" d="M33,17.53c2.21,0,3.77-1.16,3.77-3.12,0-2.15-1.73-2.69-3.27-3.15s-1.83-.8-1.83-1.26.36-.77,1.09-.77A1.78,1.78,0,0,1,34.5,10.4l2-1.15A3.94,3.94,0,0,0,32.74,7a3.18,3.18,0,0,0-3.41,3.09c0,1.95,1.48,2.67,3,3.09s2.1.67,2.1,1.29c0,.39-.28.83-1.38.83a2.13,2.13,0,0,1-2.13-1.41l-2,1.16A4,4,0,0,0,33,17.53Z"/><path class="cls-2" d="M42.11,17.53C44.35,17.53,46,16.22,46,14V7.16H43.71v6.68c0,.77-.36,1.42-1.6,1.42s-1.6-.65-1.6-1.42V7.16H38.2V14C38.2,16.22,39.88,17.53,42.11,17.53Z"/><path class="cls-2" d="M53.73,7.16v5.52L49.81,7.16H48.06V17.33h2.32V11.81l3.92,5.52H56V7.16Z"/><path class="cls-2" d="M74.28,9.41a1.33,1.33,0,0,1,.76-.2,2.15,2.15,0,0,1,.86.16h2.61l.25-.13A3.93,3.93,0,0,0,75,7a3.19,3.19,0,0,0-3.41,3A23.79,23.79,0,0,1,74.28,9.41Z"/><path class="cls-2" d="M75.79,11.26l-.61-.2c-.87.12-1.9.3-3.11.56a4.32,4.32,0,0,0,2.55,1.53c1.52.42,2.1.67,2.1,1.29,0,.39-.28.83-1.38.83a2.13,2.13,0,0,1-2.13-1.41l-2,1.16a4,4,0,0,0,4.06,2.51c2.21,0,3.77-1.16,3.77-3.12C79.05,12.26,77.32,11.72,75.79,11.26Z"/><path class="cls-2" d="M68.86,10.8c.32-.1.65-.19.86-.28V7.13H67.48v4.14C67.89,11.11,68.36,10.95,68.86,10.8Z"/><path class="cls-2" d="M69.51,12.23c-.73.19-1.42.39-2,.58v4.56h2.23V12.16S69.59,12.2,69.51,12.23Z"/><rect class="cls-2" x="80.45" y="7.13" width="6.38" height="2.23"/><polygon class="cls-2" points="82.78 15.14 82.78 13.31 86.43 13.31 86.43 11.09 80.45 11.09 80.45 17.37 86.94 17.37 86.94 15.14 82.78 15.14"/><path class="cls-2" d="M58.35,17.17A11.51,11.51,0,0,1,60.49,15V14h1.09l.08.12a23.88,23.88,0,0,1,3.68-2,3.24,3.24,0,0,0,.37-1.48,3.49,3.49,0,0,0-3.48-3.5H58.16V17.37h2.33V15.72A11.42,11.42,0,0,0,58.35,17.17Zm2.14-7.8h1.72a1.24,1.24,0,0,1,1.16,1.32A1.24,1.24,0,0,1,62.22,12H60.49Z"/></g></g></svg>