<svg xmlns="http://www.w3.org/2000/svg" viewBox="0 0 90 51.78"><defs><style>.cls-1{fill:#34307d;opacity:0.1;}.cls-2{fill:#e11633;}</style></defs><title>top-svg</title><g id="Слой_2" data-name="Слой 2"><g id="content"><rect class="cls-1" x="6.92" width="76.15" height="10.38" rx="5.19" ry="5.19"/><rect class="cls-1" x="19.8" y="41.4" width="65.08" height="10.38" rx="5.19" ry="5.19"/><rect class="cls-1" x="3.6" y="41.4" width="10.38" height="10.38" rx="5.19" ry="5.19"/><path class="cls-1" d="M60.58,20.77H17.31a5.19,5.19,0,0,0,0-10.38H60.58a5.19,5.19,0,1,0,0,10.38Z"/><path class="cls-1" d="M76.78,41.54H33.51a5.19,5.19,0,0,0,0-10.38H76.78a5.19,5.19,0,1,0,0,10.38Z"/><rect class="cls-1" y="20.77" width="90" height="10.38" rx="5.19" ry="5.19"/><path class="cls-2" d="M51,14.67A16.86,16.86,0,0,1,53.4,11.3a16.64,16.64,0,0,1,2.41,3.38L55,15.9l-.93-1.4a.83.83,0,0,0-1.34,0l-.93,1.4Z"/><path d="M53.4,11.3A16.86,16.86,0,0,0,51,14.67l.82,1.23.93-1.4a.83.83,0,0,1,1.34,0L55,15.9l.81-1.22A16.64,16.64,0,0,0,53.4,11.3Zm-.94,6.48a.82.82,0,0,1-1.33,0l-.84-1.26a3.81,3.81,0,0,0-.09.82c0,2.54,1.17,4,3.2,4s3.2-1.46,3.2-4a4,4,0,0,0-.09-.82l-.85,1.26a.79.79,0,0,1-1.32,0l-.94-1.4Zm-3.86-.44c0-3.61,4.07-7.61,4.24-7.77a.81.81,0,0,1,1.12,0c.17.16,4.24,4.16,4.24,7.77,0,2.65-1,4.21-2.38,5l.77,6.93a.49.49,0,0,1,0,.12l-.74,20a2.46,2.46,0,0,1-4.92,0l-.74-20v-.12L51,22.32C49.62,21.55,48.6,20,48.6,17.34Zm3.2,12,.74,19.94a.86.86,0,0,0,1.72,0L55,29.37l-.72-6.5a5.57,5.57,0,0,1-1.76,0Z"/><path d="M66.2,17.34a4,4,0,0,0-4,4v8a.8.8,0,0,0,.8.8h6.4a.8.8,0,0,0,.8-.8v-8a4,4,0,0,0-4-4Zm0,1.6a2.41,2.41,0,0,1,2.27,1.6H63.94a2.4,2.4,0,0,1,2.26-1.6Zm2.4,9.6H63.8v-6.4h4.8Zm0,0"/><path d="M66.2,33.34a4,4,0,0,0-4,4v8a.8.8,0,0,0,.8.8h6.4a.8.8,0,0,0,.8-.8v-8a4,4,0,0,0-4-4Zm0,1.6a2.41,2.41,0,0,1,2.27,1.6H63.94a2.4,2.4,0,0,1,2.26-1.6Zm2.4,9.6H63.8v-6.4h4.8Zm0,0"/><path d="M30.2.54H19.8a.8.8,0,0,0-.8.8v49.6a.8.8,0,0,0,.8.8H30.2a.8.8,0,0,0,.8-.8V1.34a.8.8,0,0,0-.8-.8Zm-.8,4H23.8v1.6h5.6v1.6h-4v1.6h4v1.6h-4v1.6h4v1.6h-4v1.6h4v1.6H23.8v1.6h5.6v1.6h-4v1.6h4v1.6h-4v1.6h4v1.6h-4v1.6h4v1.6h-4v1.6h4v1.6H23.8v1.6h5.6v1.6h-4v1.6h4v1.6h-4v1.6h4v1.6h-4v1.6h4v1.6h-4v1.6h4v2.4H20.6v-48h8.8Zm0,0"/><path class="cls-2" d="M39,2.14a2.41,2.41,0,0,1,2.4,2.4v.8H38.2v1.6h3.2v.8H36.6V4.54A2.41,2.41,0,0,1,39,2.14Z"/><path d="M41.4,9.34H39.8v34.4h1.6ZM39,2.14a2.41,2.41,0,0,0-2.4,2.4v3.2h4.8v-.8H38.2V5.34h3.2v-.8A2.41,2.41,0,0,0,39,2.14Zm-1.91,43.2L39,49.15l1.91-3.81Zm-.49-1.6h1.6V9.34H36.6ZM43,4.54v40a0,0,0,0,1,0,0,.93.93,0,0,1,0,.24.14.14,0,0,0,0,.06l0,0-3.2,6.4a.79.79,0,0,1-.71.44.8.8,0,0,1-.72-.44l-3.19-6.4,0,0a.14.14,0,0,0,0-.06.93.93,0,0,1,0-.24,0,0,0,0,1,0,0v-40a4,4,0,0,1,8,0Z"/><rect x="57.4" y="8.54" width="1.6" height="1.6"/><rect x="60.6" y="8.54" width="1.6" height="1.6"/><rect x="63.8" y="8.54" width="1.6" height="1.6"/><rect x="60.6" y="5.34" width="1.6" height="1.6"/><rect x="63.8" y="5.34" width="1.6" height="1.6"/><rect x="67" y="5.34" width="1.6" height="1.6"/></g></g></svg>