<svg xmlns="http://www.w3.org/2000/svg" viewBox="0 0 40 28.57"><defs><style>.cls-1{fill:#fff;}</style></defs><title>video</title><g id="Слой_2" data-name="Слой 2"><g id="content"><path class="cls-1" d="M40,26.43a1.44,1.44,0,0,1-.87,1.32,1.65,1.65,0,0,1-.56.11,1.33,1.33,0,0,1-1-.42l-9-9v3.71a6.43,6.43,0,0,1-6.43,6.43H6.43A6.43,6.43,0,0,1,0,22.15V6.43A6.43,6.43,0,0,1,6.43,0H22.15a6.43,6.43,0,0,1,6.43,6.43v3.68l9-9a1.33,1.33,0,0,1,1-.42,1.65,1.65,0,0,1,.56.11A1.44,1.44,0,0,1,40,2.14Z"/></g></g></svg>