<?xml version="1.0" encoding="utf-8"?>
<!-- Generator: Adobe Illustrator 21.0.0, SVG Export Plug-In . SVG Version: 6.00 Build 0)  -->
<svg version="1.1" id="Слой_1" xmlns="http://www.w3.org/2000/svg" xmlns:xlink="http://www.w3.org/1999/xlink" x="0px" y="0px"
	 viewBox="0 0 172.2 43.7" style="enable-background:new 0 0 172.2 43.7;" xml:space="preserve">
<style type="text/css">
	.st0{fill:#FFFFFF;}
	.st1{fill:#D42034;}
	.st2{fill:#312F77;}
	.st3{fill:#C5283D;}
</style>
<title>logo</title>
<g>
	<path class="st0" d="M80,32.9c-0.5-0.4-0.8-1-1-1.6c-0.2-0.6-0.3-1.2-0.3-1.9c0,0.6,0.1,1.2,0.3,1.8C79.3,31.9,79.6,32.4,80,32.9z"
		/>
</g>
<g>
	<path class="st1" d="M92.8,9.8C88.9-0.2,71.8-3,54.6,3.6C38.3,9.9,27.7,22.4,30,32.3c0.1,0.2,0.1,0.4,0.2,0.7
		c0.1,0.3,0.2,0.6,0.3,0.9c0.1,0.3,0.3,0.6,0.4,1C35.5,44,52,46.5,68.6,40C85.8,33.4,96.6,19.9,92.8,9.8z M33.4,36.7
		c-0.9-1-1.5-2.1-2-3.3c-0.5-1.2-0.7-2.5-0.7-3.8v-0.1c0.5-6.7,7.7-14.3,18.3-18.3c12.6-4.9,25.2-2.8,28,4.6
		c2.9,7.4-5.1,17.3-17.7,22.2C48.7,42.2,38.2,41.4,33.4,36.7z M65.3,39c-7.7,3-15.4,3.8-21.6,2.8c5.4,0.6,11.9-0.3,18.4-2.8
		c14.2-5.5,23.2-16.7,20-25C78.8,5.6,64.7,3.3,50.4,8.8c-6.4,2.5-11.7,6-15.3,10C39,14,45.2,9.5,52.8,6.6
		c15.3-5.9,30.4-3.4,33.9,5.5C90.1,21.1,80.5,33.1,65.3,39z"/>
</g>
<g>
	<path class="st2" d="M82,14C78.8,5.6,64.7,3.3,50.4,8.8c-6.4,2.5-11.7,6-15.3,10c-4,4.4-6,9.2-5.1,13.5c0.1,0.2,0.1,0.4,0.2,0.7
		c0.1,0.3,0.2,0.6,0.3,0.9c0.1,0.3,0.3,0.6,0.4,1c2,4,6.7,6.4,12.7,7c0,0,0,0,0,0c5.4,0.6,11.9-0.3,18.4-2.8
		C76.3,33.5,85.2,22.3,82,14z M59.3,38.1c-10.5,4.1-21.1,3.3-25.9-1.4c-0.9-1-1.5-2.1-2-3.3c-0.5-1.2-0.7-2.5-0.7-3.8v-0.1
		c0.5-6.7,7.7-14.3,18.3-18.3c12.6-4.9,25.2-2.8,28,4.6C79.8,23.3,71.9,33.2,59.3,38.1z"/>
</g>
<g>
	<g>
		<g>
			<path class="st3" d="M53.5,39c-3.8,0-6.9-1.8-9-5.3l-0.2-0.4l1.2-0.9l0.3,0.4c1.9,2.6,4.3,3.9,7.2,3.9c1.4,0,2.7-0.3,3.7-1
				c1-0.7,1.9-1.8,2.6-3.2c0.7-1.3,1-2.9,1.1-4.7h-8.5v-2.2h8.4c-0.3-2.9-1-5-2.3-6.3c-1.3-1.4-2.8-2.1-4.4-2.1
				c-1.4,0-2.8,0.5-4.2,1.6c-1.4,1.1-2.2,2.4-2.5,4.2l-0.1,0.4h-1.5l0.4-8.3h1.3l0.1,0.2c0.5,0.9,0.8,0.9,0.8,0.9c0,0,0.2,0,0.8-0.2
				c1.8-0.6,3.4-1,4.8-1c2.1,0,4,0.5,5.6,1.5c1.6,1,3,2.4,4.1,4.2c1.1,1.8,1.7,3.9,1.7,6.3c0,3.3-1.1,6.1-3.2,8.4
				C59.6,37.9,56.8,39,53.5,39z"/>
		</g>
		<g>
			<path class="st0" d="M53.4,15.8c2,0,3.8,0.5,5.3,1.4c1.6,0.9,2.9,2.3,4,4c1.1,1.7,1.6,3.7,1.6,6c0,3.2-1,5.9-3.1,8
				c-2,2.2-4.7,3.3-7.9,3.3c-3.7,0-6.6-1.7-8.6-5l0.4-0.3c2,2.8,4.5,4.1,7.6,4.1c1.5,0,2.8-0.4,4-1.1c1.1-0.7,2-1.9,2.8-3.4
				c0.7-1.5,1.1-3.3,1.1-5.4h-8.5v-1.2h8.5c-0.2-3.3-1.1-5.7-2.5-7.2c-1.4-1.5-3-2.2-4.8-2.2c-1.5,0-3,0.6-4.5,1.7
				c-1.5,1.1-2.3,2.6-2.6,4.5h-0.6l0.4-7.3h0.5c0.4,0.8,0.8,1.1,1.2,1.1c0.2,0,0.5-0.1,0.9-0.2C50.5,16.1,52.1,15.8,53.4,15.8
				 M53.4,14.8c-1.5,0-3.2,0.3-5,1c-0.3,0.1-0.4,0.1-0.5,0.2c-0.1-0.1-0.2-0.2-0.5-0.6l-0.3-0.5h-0.6h-0.5h-0.9l0,0.9l-0.4,7.3
				l-0.1,1h1h0.6h0.8l0.1-0.8c0.3-1.6,1-2.9,2.3-3.9c1.3-1,2.6-1.5,3.9-1.5c1.5,0,2.8,0.6,4.1,1.9c1.1,1.2,1.8,3,2.1,5.5h-7.4h-1v1
				v1.2v1h1h7.5c-0.1,1.5-0.4,2.8-1,4c-0.7,1.4-1.5,2.4-2.5,3c-1,0.6-2.1,0.9-3.4,0.9c-2.7,0-4.9-1.2-6.8-3.7l-0.6-0.8l-0.8,0.6
				l-0.4,0.3l-0.7,0.5L44,34c2.2,3.6,5.4,5.5,9.5,5.5c3.5,0,6.4-1.2,8.6-3.6c2.2-2.4,3.3-5.3,3.3-8.7c0-2.5-0.6-4.7-1.8-6.6
				c-1.2-1.8-2.6-3.3-4.3-4.3C57.6,15.3,55.6,14.8,53.4,14.8L53.4,14.8z"/>
		</g>
	</g>
</g>
<g>
	<g>
		<g>
			<path class="st3" d="M73.5,32.7l-0.1-0.2c-0.7-1-1.3-2.1-1.9-3.1c-0.1-0.2-0.2-0.3-0.2-0.3v1.4c0,0.7,0.1,0.8,0.1,0.9
				c0,0,0,0,0.1,0.1c0,0,0.2,0.1,0.7,0.1h0.5v1.3h-4.7v-1.3h0.5c0.4,0,0.5-0.1,0.6-0.1c0,0,0.1-0.2,0.1-0.9v-4c0-0.6,0-0.8,0-0.8
				c0,0-0.1-0.1-0.1-0.1c0,0-0.1-0.1-0.5-0.1h-0.5v-1.3h4.7v1.3h-0.5c-0.4,0-0.6,0-0.6,0c0,0-0.1,0.1-0.1,0.1c0,0.1,0,0.3,0,0.8v1
				c0.2,0,0.3-0.1,0.5-0.2c0.1-0.1,0.3-0.3,0.6-1c0.2-0.6,0.4-1,0.6-1.3c0.2-0.3,0.4-0.5,0.8-0.7c0.3-0.2,0.7-0.2,1-0.2
				c0.4,0,0.7,0.1,1,0.3c0.3,0.2,0.4,0.6,0.4,0.9c0,0.3-0.1,0.6-0.3,0.8c-0.2,0.2-0.4,0.4-0.9,0.4c-0.2,0-0.4,0-0.6-0.1
				c-0.2-0.1-0.3-0.1-0.3-0.1c0,0-0.1,0.1-0.2,0.3c-0.3,0.7-0.4,0.9-0.5,1c0,0.1-0.1,0.1-0.2,0.2c0,0,0.1,0.1,0.1,0.1
				c0.1,0.2,0.4,0.5,1.2,1.8c0.5,0.9,0.8,1.2,0.9,1.3c0.1,0.1,0.3,0.2,0.6,0.2l0.5,0v1.3H73.5z"/>
		</g>
		<g>
			<path class="st0" d="M74.7,24.6c0.3,0,0.5,0.1,0.7,0.2c0.2,0.1,0.3,0.3,0.3,0.6c0,0.2-0.1,0.4-0.2,0.5c-0.1,0.1-0.3,0.2-0.5,0.2
				c-0.1,0-0.3,0-0.5-0.1c-0.2-0.1-0.4-0.1-0.5-0.1c-0.3,0-0.5,0.2-0.6,0.7c-0.2,0.5-0.3,0.8-0.4,1c-0.1,0.1-0.3,0.3-0.5,0.6
				c0.2,0,0.4,0.2,0.6,0.4c0.2,0.2,0.6,0.8,1.1,1.7c0.4,0.8,0.8,1.2,1,1.5c0.2,0.2,0.5,0.3,0.9,0.3v0.3h-2.2c-0.7-1-1.3-2-1.9-3.1
				c-0.1-0.2-0.3-0.4-0.4-0.5c-0.1-0.1-0.3-0.2-0.4-0.2c-0.1,0-0.2,0-0.3,0v2c0,0.5,0,0.9,0.1,1c0.1,0.2,0.2,0.3,0.3,0.3
				c0.2,0.1,0.4,0.1,0.8,0.1v0.3h-3.8V32c0.5,0,0.8-0.1,0.9-0.3c0.1-0.2,0.2-0.6,0.2-1.2v-4c0-0.6,0-0.9-0.1-1
				c-0.1-0.1-0.2-0.2-0.3-0.3c-0.1-0.1-0.4-0.1-0.8-0.1v-0.3h3.8V25c-0.5,0-0.7,0-0.8,0.1c-0.1,0.1-0.2,0.1-0.3,0.2
				c-0.1,0.1-0.1,0.5-0.1,1.1V28c0.1,0,0.2,0,0.3,0c0.3,0,0.7-0.1,0.9-0.3c0.3-0.2,0.6-0.6,0.8-1.2c0.2-0.6,0.4-1,0.5-1.2
				c0.1-0.2,0.3-0.4,0.6-0.5C74.1,24.7,74.4,24.6,74.7,24.6 M74.7,23.7c-0.4,0-0.8,0.1-1.2,0.3c-0.2,0.1-0.3,0.2-0.4,0.3v-0.5h-1
				h-3.8h-1v1V25v1h1c0.1,0,0.1,0,0.2,0c0,0.1,0,0.3,0,0.5v4c0,0.2,0,0.4,0,0.5c0,0-0.1,0-0.2,0h-1v1v0.3v1h1h3.8h1v-0.4l0.3,0.4
				h0.5H76h1v-1V32V31L76,31c-0.2,0-0.3-0.1-0.3-0.1c0,0-0.2-0.3-0.8-1.2c-0.6-1.1-0.9-1.6-1.1-1.8c0.1-0.1,0.2-0.4,0.4-1
				c0.3,0.1,0.5,0.1,0.7,0.1c0.6,0,1-0.3,1.2-0.5c0.3-0.3,0.5-0.7,0.5-1.2c0-0.5-0.2-1-0.6-1.3C75.6,23.8,75.2,23.7,74.7,23.7
				L74.7,23.7z M71.8,26c0,0,0.1,0,0.2,0c0,0.1,0,0.1-0.1,0.2c0,0.1-0.1,0.2-0.1,0.3C71.7,26.2,71.8,26.1,71.8,26L71.8,26z M71.8,31
				C71.8,31,71.8,30.9,71.8,31C71.8,30.9,71.8,31,71.8,31C71.8,31,71.8,31,71.8,31L71.8,31z"/>
		</g>
	</g>
	<g>
		<g>
			<path class="st3" d="M78.1,32.9c-1,0-1.5-0.5-1.5-1.4c0-0.3,0.1-0.6,0.3-0.8c0.2-0.2,0.5-0.4,0.8-0.4c0.3,0,0.6,0.1,0.9,0.4
				c0.1,0.1,0.1,0.1,0.1,0.1c0,0,0.1-0.1,0.1-0.2c0.1-0.3,0.2-0.8,0.2-2.1v-1.7c0-0.9-0.1-1.2-0.1-1.3c0,0-0.2-0.1-0.6-0.1l-0.4,0
				v-1.2h7.7v1.3H85c-0.4,0-0.5,0-0.5,0c0,0-0.1,0.1-0.1,0.1c0,0.1,0,0.3,0,0.8v4c0,0.6,0,0.8,0,0.8c0,0,0.1,0.1,0.1,0.1
				c0,0,0.1,0.1,0.5,0.1h0.5v1.3h-4.9v-1.3h0.5c0.5,0,0.7,0,0.8,0c0,0,0,0,0.1-0.1c0,0,0.1-0.2,0.1-0.9v-4.8h-1.6v2.7
				c0,1.3-0.1,2.1-0.2,2.6c-0.1,0.6-0.4,1.1-0.8,1.4C79.1,32.7,78.6,32.9,78.1,32.9z"/>
		</g>
		<g>
			<path class="st0" d="M85,24.7V25c-0.4,0-0.6,0-0.7,0.1c-0.1,0.1-0.2,0.2-0.3,0.3c-0.1,0.1-0.1,0.5-0.1,1.1v4c0,0.6,0,0.9,0.1,1
				c0.1,0.1,0.2,0.2,0.3,0.3c0.1,0.1,0.4,0.1,0.8,0.1v0.3h-3.9V32c0.4,0,0.7,0,0.9-0.1c0.2,0,0.3-0.1,0.4-0.3
				c0.1-0.2,0.1-0.5,0.1-1.1v-5.2H80v3.2c0,1.2-0.1,2.1-0.2,2.5c-0.1,0.5-0.3,0.8-0.6,1.1c-0.3,0.2-0.7,0.4-1.1,0.4
				c-0.7,0-1.1-0.3-1.1-0.9c0-0.2,0.1-0.4,0.2-0.5c0.1-0.1,0.3-0.2,0.4-0.2c0.2,0,0.4,0.1,0.5,0.2c0.2,0.2,0.4,0.3,0.5,0.3
				c0.2,0,0.4-0.2,0.5-0.6c0.1-0.4,0.2-1.1,0.2-2.2v-1.7c0-0.9-0.1-1.4-0.2-1.6c-0.1-0.2-0.4-0.3-1-0.3v-0.3H85 M86,23.7h-1h-6.8h-1
				v1V25v0.9l0.9,0.1c0.1,0,0.2,0,0.2,0c0,0.2,0,0.5,0,0.9v1.7c0,0.7,0,1.1-0.1,1.4c-0.2-0.1-0.5-0.2-0.7-0.2
				c-0.5,0-0.9,0.2-1.2,0.5c-0.3,0.3-0.4,0.7-0.4,1.1c0,0.7,0.3,1.2,0.6,1.4c0.4,0.3,0.8,0.4,1.4,0.4c0.6,0,1.2-0.2,1.7-0.5
				c0.1-0.1,0.3-0.2,0.4-0.3v0.7h1H85h1v-1V32v-1h-1c-0.1,0-0.1,0-0.2,0c0-0.1,0-0.3,0-0.5v-4c0-0.2,0-0.4,0-0.5c0,0,0.1,0,0.2,0h1
				v-1v-0.3V23.7L86,23.7z M81,26.2h0.6v4.3c0,0.2,0,0.4,0,0.5c-0.1,0-0.2,0-0.4,0h-0.3c0.1-0.6,0.1-1.4,0.1-2.6V26.2L81,26.2z
				 M78.3,30.6L78.3,30.6L78.3,30.6z"/>
		</g>
	</g>
	<g>
		<g>
			<path class="st3" d="M90.2,33c-1,0-1.9-0.4-2.7-1.2c-0.7-0.8-1.1-1.9-1.1-3.2c0-1.4,0.4-2.5,1.1-3.3c0.8-0.8,1.7-1.2,2.9-1.2
				c1,0,1.8,0.3,2.4,1c0.6,0.6,1,1.5,1,2.6V28h-5.2c0.1,0.8,0.3,1.4,0.7,1.8c0.5,0.5,1,0.8,1.6,0.8c0.4,0,0.7-0.1,1-0.3
				c0.3-0.2,0.5-0.6,0.8-1.2l0.2-0.6l1,0.7l0,0.3c-0.1,0.8-0.5,1.6-1.1,2.3C92,32.6,91.1,33,90.2,33z M91,26.6
				c0-0.2-0.1-0.3-0.1-0.3c-0.1-0.2-0.2-0.4-0.4-0.5c-0.2-0.1-0.4-0.2-0.6-0.2c-0.3,0-0.6,0.1-0.9,0.4c-0.2,0.2-0.3,0.4-0.4,0.7H91z
				"/>
		</g>
		<g>
			<path class="st0" d="M90.3,24.5c0.8,0,1.5,0.3,2.1,0.8c0.5,0.6,0.8,1.3,0.8,2.2H88c0,1.1,0.3,2,0.8,2.6c0.5,0.6,1.2,1,1.9,1
				c0.5,0,0.9-0.1,1.3-0.4c0.4-0.3,0.7-0.7,0.9-1.4l0.3,0.2c-0.1,0.8-0.5,1.4-1,2.1c-0.6,0.6-1.3,0.9-2.1,0.9
				c-0.9,0-1.7-0.4-2.3-1.1c-0.6-0.7-1-1.7-1-2.9c0-1.3,0.3-2.3,1-3C88.5,24.8,89.3,24.5,90.3,24.5 M88,27.1h3.5
				c0-0.5-0.1-0.8-0.2-1c-0.1-0.3-0.3-0.5-0.6-0.7c-0.3-0.2-0.6-0.3-0.9-0.3c-0.5,0-0.9,0.2-1.2,0.5C88.3,25.9,88.1,26.4,88,27.1
				 M90.3,23.5c-1.3,0-2.4,0.5-3.2,1.4c-0.8,0.9-1.2,2.1-1.2,3.7c0,1.4,0.4,2.6,1.2,3.5c0.8,0.9,1.9,1.4,3,1.4
				c1.1,0,2.1-0.4,2.8-1.2c0.7-0.8,1.1-1.6,1.2-2.6l0.1-0.6l-0.5-0.3l-0.3-0.2l0,0h0.7v-1c0-1.2-0.4-2.2-1.1-2.9
				C92.4,23.9,91.5,23.5,90.3,23.5L90.3,23.5z M89.6,26.1c0.1-0.1,0.2-0.1,0.3-0.1c0.1,0,0.2,0,0.3,0.1H89.6L89.6,26.1z M89.1,28.5
				h3.2L92.1,29c-0.2,0.6-0.5,0.9-0.6,1c-0.2,0.1-0.4,0.2-0.7,0.2c-0.5,0-0.8-0.2-1.2-0.6C89.3,29.3,89.2,28.9,89.1,28.5L89.1,28.5z
				"/>
		</g>
	</g>
	<g>
		<g>
			<path class="st3" d="M100.2,32.7l-0.1-0.2c-0.7-1-1.3-2.1-1.9-3.1c-0.1-0.2-0.2-0.3-0.2-0.3v1.4c0,0.7,0.1,0.8,0.1,0.9
				c0,0,0,0,0.1,0.1c0,0,0.2,0.1,0.7,0.1h0.5v1.3h-4.7v-1.3H95c0.4,0,0.5-0.1,0.6-0.1c0,0,0.1-0.2,0.1-0.9v-4c0-0.6,0-0.8,0-0.8
				c0,0-0.1-0.1-0.1-0.1c0,0-0.1-0.1-0.5-0.1h-0.5v-1.3h4.7v1.3h-0.5c-0.4,0-0.6,0-0.6,0c0,0-0.1,0.1-0.1,0.1c0,0.1,0,0.3,0,0.8v1
				c0.2,0,0.3-0.1,0.5-0.2c0.1-0.1,0.3-0.3,0.6-1c0.2-0.6,0.4-1,0.6-1.3c0.2-0.3,0.4-0.5,0.8-0.7c0.3-0.2,0.7-0.2,1-0.2
				c0.4,0,0.7,0.1,1,0.3c0.3,0.2,0.4,0.6,0.4,0.9c0,0.3-0.1,0.6-0.3,0.8c-0.2,0.2-0.4,0.4-0.9,0.4c-0.2,0-0.4,0-0.6-0.1
				c-0.2-0.1-0.3-0.1-0.3-0.1c0,0-0.1,0.1-0.2,0.3c-0.3,0.7-0.4,0.9-0.5,1c0,0.1-0.1,0.1-0.2,0.2c0,0,0.1,0.1,0.1,0.1
				c0.1,0.2,0.4,0.5,1.2,1.8c0.5,0.9,0.8,1.2,0.9,1.3c0.1,0.1,0.3,0.2,0.6,0.2l0.5,0v1.3H100.2z"/>
		</g>
		<g>
			<path class="st0" d="M101.4,24.6c0.3,0,0.5,0.1,0.7,0.2c0.2,0.1,0.3,0.3,0.3,0.6c0,0.2-0.1,0.4-0.2,0.5c-0.1,0.1-0.3,0.2-0.5,0.2
				c-0.1,0-0.3,0-0.5-0.1c-0.2-0.1-0.4-0.1-0.5-0.1c-0.3,0-0.5,0.2-0.6,0.7c-0.2,0.5-0.3,0.8-0.4,1c-0.1,0.1-0.3,0.3-0.5,0.6
				c0.2,0,0.4,0.2,0.6,0.4c0.2,0.2,0.6,0.8,1.1,1.7c0.4,0.8,0.8,1.2,1,1.5c0.2,0.2,0.5,0.3,0.9,0.3v0.3h-2.2c-0.7-1-1.3-2-1.9-3.1
				c-0.1-0.2-0.3-0.4-0.4-0.5c-0.1-0.1-0.3-0.2-0.4-0.2c-0.1,0-0.2,0-0.3,0v2c0,0.5,0,0.9,0.1,1c0.1,0.2,0.2,0.3,0.3,0.3
				c0.2,0.1,0.4,0.1,0.8,0.1v0.3H95V32c0.5,0,0.8-0.1,0.9-0.3c0.1-0.2,0.2-0.6,0.2-1.2v-4c0-0.6,0-0.9-0.1-1
				c-0.1-0.1-0.2-0.2-0.3-0.3C95.6,25.1,95.3,25,95,25v-0.3h3.8V25c-0.5,0-0.7,0-0.8,0.1c-0.1,0.1-0.2,0.1-0.3,0.2
				c-0.1,0.1-0.1,0.5-0.1,1.1V28c0.1,0,0.2,0,0.3,0c0.3,0,0.7-0.1,0.9-0.3c0.3-0.2,0.6-0.6,0.8-1.2c0.2-0.6,0.4-1,0.5-1.2
				c0.1-0.2,0.3-0.4,0.6-0.5C100.8,24.7,101.1,24.6,101.4,24.6 M101.4,23.7c-0.4,0-0.8,0.1-1.2,0.3c-0.2,0.1-0.3,0.2-0.4,0.3v-0.5
				h-1H95h-1v1V25v1h1c0.1,0,0.1,0,0.2,0c0,0.1,0,0.3,0,0.5v4c0,0.2,0,0.4,0,0.5c0,0-0.1,0-0.2,0h-1v1v0.3v1h1h3.8h1v-0.4l0.3,0.4
				h0.5h2.2h1v-1V32V31l-0.9,0c-0.2,0-0.3-0.1-0.3-0.1c0,0-0.2-0.3-0.8-1.2c-0.6-1.1-0.9-1.6-1.1-1.8c0.1-0.1,0.2-0.4,0.4-1
				c0.3,0.1,0.5,0.1,0.7,0.1c0.6,0,1-0.3,1.2-0.5c0.3-0.3,0.5-0.7,0.5-1.2c0-0.5-0.2-1-0.6-1.3C102.3,23.8,101.9,23.7,101.4,23.7
				L101.4,23.7z M98.4,26c0,0,0.1,0,0.2,0c0,0.1,0,0.1-0.1,0.2c0,0.1-0.1,0.2-0.1,0.3C98.4,26.2,98.4,26.1,98.4,26L98.4,26z
				 M98.4,31C98.4,31,98.4,30.9,98.4,31C98.4,30.9,98.5,31,98.4,31C98.5,31,98.5,31,98.4,31L98.4,31z"/>
		</g>
	</g>
	<g>
		<g>
			<path class="st3" d="M104.7,32.7v-1.3l0.5,0c0.5,0,0.6-0.1,0.7-0.1c0,0,0.1-0.3,0.1-0.9v-4.8h-0.2c-0.6,0-0.8,0-0.8,0.1
				c0,0-0.1,0.1-0.3,0.2c-0.1,0.1-0.2,0.4-0.3,0.8l-0.1,0.4h-1.3l0.5-3h7.4l0.5,3h-1.3l-0.1-0.4c-0.1-0.3-0.1-0.6-0.3-0.8
				c-0.1-0.1-0.2-0.2-0.3-0.3c-0.1,0-0.3-0.1-0.9-0.1h-0.2v4.8c0,0.7,0.1,0.9,0.1,0.9c0,0,0,0,0,0c0,0,0.2,0.1,0.9,0.1l0.5,0v1.3
				H104.7z"/>
		</g>
		<g>
			<path class="st0" d="M110.3,24.7l0.3,2h-0.4c-0.1-0.4-0.2-0.7-0.3-1c-0.2-0.2-0.3-0.4-0.5-0.4c-0.2-0.1-0.5-0.1-1-0.1h-0.7v5.2
				c0,0.6,0,0.9,0.1,1.1c0.1,0.2,0.2,0.3,0.3,0.3c0.2,0,0.5,0.1,1.1,0.1v0.3h-4.1V32c0.5,0,0.9-0.1,1-0.3c0.2-0.2,0.2-0.6,0.2-1.2
				v-5.2h-0.7c-0.5,0-0.8,0-1,0.1c-0.2,0.1-0.3,0.2-0.5,0.4c-0.2,0.2-0.3,0.6-0.4,1h-0.4l0.3-2H110.3 M111.2,23.7h-0.8h-6.5H103
				l-0.1,0.8l-0.3,2l-0.2,1.1h1.1h0.4h0.8l0.2-0.7c0.1-0.5,0.2-0.6,0.2-0.7c0,0,0-0.1,0.1-0.1c0.1,0,0.2,0,0.3,0v4.3
				c0,0.2,0,0.4,0,0.5c-0.1,0-0.2,0-0.3,0l-0.9,0V32v0.3v1h1h4.1h1v-1V32V31l-0.9,0c-0.2,0-0.4,0-0.5,0c0-0.1,0-0.3,0-0.5v-4.3
				c0.2,0,0.3,0,0.4,0c0,0,0,0,0.1,0.1c0,0,0.1,0.2,0.2,0.6l0.1,0.8h0.8h0.4h1.1l-0.2-1.1l-0.3-2L111.2,23.7L111.2,23.7z"/>
		</g>
	</g>
	<g>
		<g>
			<path class="st3" d="M116.2,32.7v-1.3h0.5c0.4,0,0.5-0.1,0.6-0.1c0,0,0.1-0.2,0.1-0.9v-2.3l-2.3,2.7c0,0.4,0.1,0.5,0.1,0.5
				c0,0,0.1,0.1,0.4,0.1l0.5,0v1.3h-4.5v-1.3h0.5c0.4,0,0.5-0.1,0.6-0.1c0,0,0.1-0.2,0.1-0.9v-4c0-0.6,0-0.8,0-0.8
				c0,0-0.1-0.1-0.1-0.1c0,0-0.1-0.1-0.5-0.1h-0.5v-1.3h4.6v1.3h-0.5c-0.4,0-0.5,0-0.5,0c0,0-0.1,0.1-0.1,0.1c0,0.1,0,0.3,0,0.8v2.2
				l2.3-2.7c0-0.3-0.1-0.4-0.1-0.4c0,0-0.2-0.1-0.4-0.1l-0.5,0v-1.3h4.5v1.3h-0.5c-0.4,0-0.5,0-0.5,0c0,0-0.1,0.1-0.1,0.1
				c0,0.1,0,0.3,0,0.8v4c0,0.6,0,0.8,0,0.8c0,0,0.1,0.1,0.1,0.1c0,0,0.1,0.1,0.5,0.1h0.5v1.3H116.2z"/>
		</g>
		<g>
			<path class="st0" d="M120.3,24.7V25c-0.4,0-0.6,0-0.7,0.1c-0.1,0.1-0.2,0.2-0.3,0.3c-0.1,0.1-0.1,0.5-0.1,1.1v4
				c0,0.6,0,0.9,0.1,1c0.1,0.1,0.2,0.2,0.3,0.3c0.1,0.1,0.4,0.1,0.8,0.1v0.3h-3.7V32c0.5,0,0.8-0.1,0.9-0.3c0.2-0.2,0.2-0.6,0.2-1.2
				v-3.6l-3.3,3.8c0,0.5,0.1,0.8,0.2,1c0.1,0.2,0.4,0.3,0.8,0.3v0.3H112V32c0.5,0,0.8-0.1,0.9-0.3c0.1-0.2,0.2-0.6,0.2-1.2v-4
				c0-0.6,0-0.9-0.1-1c-0.1-0.1-0.2-0.2-0.3-0.3c-0.1-0.1-0.4-0.1-0.8-0.1v-0.3h3.7V25c-0.4,0-0.6,0-0.7,0.1
				c-0.1,0.1-0.2,0.2-0.3,0.3c-0.1,0.1-0.1,0.5-0.1,1.1v3.5l3.3-3.8c0-0.4-0.1-0.7-0.2-0.9c-0.1-0.2-0.4-0.3-0.8-0.3v-0.3H120.3
				 M121.3,23.7h-1h-3.5h-0.1h-1H112h-1v1V25v1h1c0.1,0,0.1,0,0.2,0c0,0.1,0,0.3,0,0.5v4c0,0.2,0,0.4,0,0.5c0,0-0.1,0-0.2,0h-1v1
				v0.3v1h1h3.5h1h0.2h3.7h1v-1V32v-1h-1c-0.1,0-0.1,0-0.2,0c0-0.1,0-0.3,0-0.5v-4c0-0.2,0-0.4,0-0.5c0,0,0.1,0,0.2,0h1v-1v-0.3
				V23.7L121.3,23.7z M115.5,26c0,0,0.1,0,0.2,0h1v0l0,0l-1.2,1.4v-0.9C115.5,26.3,115.5,26.1,115.5,26L115.5,26z M115.6,31l1.3-1.5
				v1c0,0.2,0,0.4,0,0.5c0,0-0.1,0-0.2,0h-1v0L115.6,31L115.6,31z"/>
		</g>
	</g>
	<g>
		<g>
			<path class="st3" d="M127.1,32.7l-0.1-0.2c-0.7-1-1.3-2.1-1.9-3.1c-0.1-0.2-0.2-0.3-0.2-0.3v1.4c0,0.7,0.1,0.8,0.1,0.9
				c0,0,0,0,0.1,0.1c0,0,0.2,0.1,0.7,0.1h0.5v1.3h-4.7v-1.3h0.5c0.4,0,0.5-0.1,0.6-0.1c0,0,0.1-0.2,0.1-0.9v-4c0-0.6,0-0.8,0-0.8
				c0,0-0.1-0.1-0.1-0.1c0,0-0.1-0.1-0.5-0.1h-0.5v-1.3h4.7v1.3h-0.5c-0.4,0-0.6,0-0.6,0c0,0-0.1,0.1-0.1,0.1c0,0.1,0,0.3,0,0.8v1
				c0.2,0,0.3-0.1,0.5-0.2c0.1-0.1,0.3-0.3,0.6-1c0.2-0.6,0.4-1,0.6-1.3c0.2-0.3,0.4-0.5,0.8-0.7c0.3-0.2,0.7-0.2,1-0.2
				c0.4,0,0.7,0.1,1,0.3c0.3,0.2,0.4,0.6,0.4,0.9c0,0.3-0.1,0.6-0.3,0.8c-0.2,0.2-0.4,0.4-0.9,0.4c-0.2,0-0.4,0-0.6-0.1
				c-0.2-0.1-0.3-0.1-0.3-0.1c0,0-0.1,0.1-0.2,0.3c-0.3,0.7-0.4,0.9-0.5,1c0,0.1-0.1,0.1-0.2,0.2c0,0,0.1,0.1,0.1,0.1
				c0.1,0.2,0.4,0.5,1.2,1.8c0.5,0.9,0.8,1.2,0.9,1.3c0.1,0.1,0.3,0.2,0.6,0.2l0.5,0v1.3H127.1z"/>
		</g>
		<g>
			<path class="st0" d="M128.3,24.6c0.3,0,0.5,0.1,0.7,0.2c0.2,0.1,0.3,0.3,0.3,0.6c0,0.2-0.1,0.4-0.2,0.5c-0.1,0.1-0.3,0.2-0.5,0.2
				c-0.1,0-0.3,0-0.5-0.1c-0.2-0.1-0.4-0.1-0.5-0.1c-0.3,0-0.5,0.2-0.6,0.7c-0.2,0.5-0.3,0.8-0.4,1c-0.1,0.1-0.3,0.3-0.5,0.6
				c0.2,0,0.4,0.2,0.6,0.4c0.2,0.2,0.6,0.8,1.1,1.7c0.4,0.8,0.8,1.2,1,1.5c0.2,0.2,0.5,0.3,0.9,0.3v0.3h-2.2c-0.7-1-1.3-2-1.9-3.1
				c-0.1-0.2-0.3-0.4-0.4-0.5c-0.1-0.1-0.3-0.2-0.4-0.2c-0.1,0-0.2,0-0.3,0v2c0,0.5,0,0.9,0.1,1c0.1,0.2,0.2,0.3,0.3,0.3
				c0.2,0.1,0.4,0.1,0.8,0.1v0.3h-3.8V32c0.5,0,0.8-0.1,0.9-0.3c0.1-0.2,0.2-0.6,0.2-1.2v-4c0-0.6,0-0.9-0.1-1
				c-0.1-0.1-0.2-0.2-0.3-0.3c-0.1-0.1-0.4-0.1-0.8-0.1v-0.3h3.8V25c-0.5,0-0.7,0-0.8,0.1c-0.1,0.1-0.2,0.1-0.3,0.2
				c-0.1,0.1-0.1,0.5-0.1,1.1V28c0.1,0,0.2,0,0.3,0c0.3,0,0.7-0.1,0.9-0.3c0.3-0.2,0.6-0.6,0.8-1.2c0.2-0.6,0.4-1,0.5-1.2
				c0.1-0.2,0.3-0.4,0.6-0.5C127.8,24.7,128,24.6,128.3,24.6 M128.3,23.7c-0.4,0-0.8,0.1-1.2,0.3c-0.2,0.1-0.3,0.2-0.4,0.3v-0.5h-1
				h-3.8h-1v1V25v1h1c0.1,0,0.1,0,0.2,0c0,0.1,0,0.3,0,0.5v4c0,0.2,0,0.4,0,0.5c0,0-0.1,0-0.2,0h-1v1v0.3v1h1h3.8h1v-0.4l0.3,0.4
				h0.5h2.2h1v-1V32V31l-0.9,0c-0.2,0-0.3-0.1-0.3-0.1c0,0-0.2-0.3-0.8-1.2c-0.6-1.1-0.9-1.6-1.1-1.8c0.1-0.1,0.2-0.4,0.4-1
				c0.3,0.1,0.5,0.1,0.7,0.1c0.6,0,1-0.3,1.2-0.5c0.3-0.3,0.5-0.7,0.5-1.2c0-0.5-0.2-1-0.6-1.3C129.3,23.8,128.8,23.7,128.3,23.7
				L128.3,23.7z M125.4,26c0,0,0.1,0,0.2,0c0,0.1,0,0.1-0.1,0.2c0,0.1-0.1,0.2-0.1,0.3C125.4,26.2,125.4,26.1,125.4,26L125.4,26z
				 M125.4,31C125.4,31,125.4,30.9,125.4,31C125.4,30.9,125.4,31,125.4,31C125.4,31,125.4,31,125.4,31L125.4,31z"/>
		</g>
	</g>
	<g>
		<g>
			<path class="st3" d="M132.7,32.9c-0.7,0-1.2-0.2-1.6-0.7c-0.4-0.4-0.6-1-0.6-1.7c0-0.5,0.1-0.9,0.3-1.2c0.3-0.4,0.7-0.8,1.3-1.2
				c0.5-0.3,1.4-0.7,2.5-1.1c0-0.8-0.2-1.1-0.2-1.2c-0.1-0.2-0.4-0.3-0.7-0.3c-0.2,0-0.4,0.1-0.5,0.2l0,0c-0.1,0.1-0.2,0.2-0.2,0.3
				l0,0.5v0c0,0.4-0.1,0.7-0.3,0.9c-0.2,0.2-0.5,0.4-0.9,0.4c-0.3,0-0.6-0.1-0.9-0.4c-0.2-0.2-0.3-0.5-0.3-0.9
				c0-0.6,0.3-1.2,0.9-1.7c0.6-0.5,1.4-0.7,2.3-0.7c0.7,0,1.4,0.1,1.9,0.4c0.4,0.2,0.7,0.6,0.9,1c0.1,0.2,0.2,0.6,0.2,1.6v2.6
				c0,0.7,0,1,0,1.2c0.1-0.1,0.2-0.2,0.4-0.4l0.8-0.8v1.8l-0.1,0.1c-0.7,1-1.4,1.4-2.2,1.4c-0.4,0-0.8-0.2-1-0.4
				c-0.1-0.1-0.2-0.2-0.2-0.4c-0.6,0.4-0.8,0.5-0.9,0.6C133.5,32.8,133.1,32.9,132.7,32.9z M134.6,28.5c-0.5,0.2-0.8,0.3-0.9,0.4
				c-0.4,0.2-0.6,0.4-0.8,0.6c-0.1,0.2-0.2,0.4-0.2,0.6c0,0.3,0.1,0.5,0.2,0.7c0.2,0.2,0.4,0.2,0.5,0.2c0.2,0,0.5-0.1,1.2-0.6V28.5z
				"/>
		</g>
		<g>
			<path class="st0" d="M134,24.5c0.7,0,1.2,0.1,1.6,0.3c0.3,0.2,0.6,0.4,0.7,0.8c0.1,0.2,0.1,0.7,0.1,1.5v2.6c0,0.7,0,1.2,0,1.3
				c0,0.2,0.1,0.3,0.1,0.3c0.1,0.1,0.1,0.1,0.2,0.1c0.1,0,0.2,0,0.2-0.1c0.1-0.1,0.3-0.3,0.7-0.6v0.5c-0.6,0.8-1.2,1.2-1.8,1.2
				c-0.3,0-0.5-0.1-0.6-0.3c-0.2-0.2-0.2-0.5-0.2-1c-0.8,0.6-1.3,0.9-1.5,1c-0.3,0.1-0.6,0.2-0.9,0.2c-0.5,0-1-0.2-1.3-0.5
				c-0.3-0.4-0.5-0.8-0.5-1.4c0-0.4,0.1-0.7,0.2-1c0.2-0.4,0.6-0.7,1.2-1.1c0.6-0.3,1.5-0.7,2.8-1.2V27c0-0.8-0.1-1.3-0.4-1.6
				c-0.2-0.3-0.6-0.4-1-0.4c-0.3,0-0.6,0.1-0.8,0.3c-0.2,0.2-0.3,0.4-0.3,0.6l0,0.5c0,0.3-0.1,0.4-0.2,0.6c-0.1,0.1-0.3,0.2-0.5,0.2
				c-0.2,0-0.4-0.1-0.5-0.2c-0.1-0.1-0.2-0.3-0.2-0.6c0-0.5,0.2-0.9,0.7-1.3C132.4,24.7,133.1,24.5,134,24.5 M133.5,31.5
				c0.4,0,1-0.3,1.6-0.8v-2.9c-0.8,0.3-1.4,0.6-1.6,0.7c-0.4,0.2-0.7,0.5-0.9,0.8c-0.2,0.3-0.3,0.6-0.3,0.9c0,0.4,0.1,0.7,0.4,1
				C132.9,31.3,133.2,31.5,133.5,31.5 M134,23.5c-1.1,0-2,0.3-2.6,0.8c-0.9,0.7-1.1,1.5-1.1,2c0,0.6,0.2,1,0.4,1.2
				c0.2,0.2,0.4,0.3,0.6,0.4c-0.4,0.3-0.7,0.6-0.9,1c-0.3,0.4-0.4,0.9-0.4,1.5c0,0.8,0.3,1.5,0.8,2.1c0.5,0.5,1.2,0.8,2,0.8
				c0.5,0,0.9-0.1,1.4-0.3l0,0l0,0c0.1-0.1,0.3-0.1,0.6-0.3c0,0,0,0,0,0c0.3,0.4,0.8,0.6,1.4,0.6c0.9,0,1.7-0.5,2.5-1.6l0.2-0.3
				v-0.3v-0.5v-2.3l-1.3,1.3c0,0,0,0,0,0v-2.6c0-0.9-0.1-1.5-0.2-1.8l0,0l0,0c-0.2-0.6-0.6-1-1.2-1.3
				C135.5,23.7,134.8,23.5,134,23.5L134,23.5z M133.5,26c0,0,0.1,0,0.2,0c0.2,0,0.3,0,0.3,0.1c0,0,0.1,0.2,0.1,0.6
				c-0.2,0.1-0.4,0.2-0.6,0.2c0-0.1,0-0.3,0-0.5v0l0,0L133.5,26L133.5,26z M133.5,30.5c0,0-0.1,0-0.1-0.1c-0.1-0.1-0.1-0.1-0.1-0.3
				c0-0.1,0-0.2,0.1-0.3c0.1-0.1,0.2-0.3,0.6-0.5l0,0l0,0c0,0,0.1,0,0.2-0.1v0.9C133.7,30.5,133.5,30.5,133.5,30.5L133.5,30.5z"/>
		</g>
	</g>
</g>
<g>
	<path d="M81.6,36.5c0.4,0,0.8,0.1,1,0.4s0.4,0.6,0.4,1c0,0.3-0.1,0.6-0.3,0.9c-0.3,0.3-0.6,0.5-1.1,0.5c-0.5,0-0.9-0.2-1.1-0.5
		c-0.2-0.3-0.3-0.6-0.3-0.9c0-0.4,0.1-0.7,0.4-1C80.9,36.6,81.2,36.4,81.6,36.5z M81.6,36.6c-0.2,0-0.4,0.1-0.6,0.4
		c-0.1,0.2-0.2,0.5-0.2,0.9c0,0.5,0.1,0.8,0.2,1c0.1,0.2,0.3,0.2,0.5,0.2c0.1,0,0.2,0,0.3-0.1c0.1-0.1,0.2-0.2,0.3-0.4
		c0.1-0.2,0.1-0.4,0.1-0.7c0-0.4,0-0.6-0.1-0.8c-0.1-0.2-0.2-0.3-0.3-0.4C81.9,36.6,81.8,36.6,81.6,36.6z"/>
	<path d="M83.3,36.5h2.3v0.7h-0.1c0-0.1-0.1-0.2-0.1-0.3c-0.1-0.1-0.1-0.1-0.2-0.2c-0.1,0-0.2,0-0.4,0h-0.5v1h0.4
		c0.4,0,0.7,0.1,0.8,0.2c0.2,0.1,0.3,0.3,0.3,0.5c0,0.2,0,0.3-0.1,0.4c-0.1,0.1-0.2,0.2-0.3,0.2c-0.1,0.1-0.3,0.1-0.6,0.1h-1.4v-0.1
		c0.2,0,0.3,0,0.3-0.1c0,0,0.1-0.1,0.1-0.3v-1.8c0-0.2,0-0.3-0.1-0.3C83.5,36.6,83.4,36.6,83.3,36.5L83.3,36.5z M84.3,37.9v0.8
		c0,0.1,0,0.2,0.1,0.3c0,0.1,0.1,0.1,0.2,0.1c0.2,0,0.3-0.1,0.3-0.2c0.1-0.1,0.1-0.2,0.1-0.4c0-0.2,0-0.3-0.1-0.4
		c-0.1-0.1-0.2-0.2-0.2-0.2C84.6,37.9,84.5,37.9,84.3,37.9z"/>
	<path d="M87,38v0.7c0,0.1,0,0.2,0,0.3c0,0,0,0.1,0.1,0.1c0,0,0.1,0,0.3,0v0.1H86v-0.1c0.1,0,0.2,0,0.3,0c0,0,0.1-0.1,0.1-0.1
		c0,0,0-0.1,0-0.3V37c0-0.1,0-0.2,0-0.3c0,0,0-0.1-0.1-0.1c0,0-0.1,0-0.3,0v-0.1h1.2c0.4,0,0.7,0.1,0.8,0.2c0.2,0.1,0.3,0.3,0.3,0.5
		c0,0.2-0.1,0.3-0.2,0.4c-0.1,0.1-0.3,0.2-0.4,0.3C87.5,37.9,87.3,38,87,38z M87,36.6v1.2c0,0,0.1,0,0.1,0c0.2,0,0.3,0,0.4-0.1
		c0.1-0.1,0.1-0.2,0.1-0.4c0-0.2,0-0.3-0.1-0.4C87.4,36.7,87.2,36.6,87,36.6L87,36.6z"/>
	<path d="M89.5,38.4h-0.9l-0.1,0.3c0,0.1-0.1,0.2-0.1,0.2c0,0.1,0,0.1,0.1,0.2c0,0,0.1,0,0.3,0v0.1h-0.9v-0.1c0.1,0,0.2-0.1,0.2-0.1
		c0.1-0.1,0.1-0.2,0.2-0.4l1-2.1h0l1,2.2c0.1,0.2,0.2,0.3,0.2,0.4c0,0,0.1,0.1,0.2,0.1v0.1h-1.3v-0.1h0.1c0.1,0,0.2,0,0.2,0
		c0,0,0-0.1,0-0.1c0,0,0,0,0-0.1c0,0,0-0.1-0.1-0.1L89.5,38.4z M89.5,38.3l-0.4-0.9l-0.4,0.9H89.5z"/>
	<path d="M90.9,37.3v-0.8H91c0,0.1,0.1,0.1,0.1,0.1c0,0,0.1,0,0.1,0c0.2-0.1,0.3-0.1,0.5-0.1c0.3,0,0.5,0.1,0.6,0.2
		c0.1,0.1,0.2,0.3,0.2,0.5c0,0.1,0,0.2-0.1,0.3c0,0.1-0.1,0.2-0.2,0.2c-0.1,0.1-0.2,0.1-0.4,0.2c0.3,0,0.5,0.1,0.6,0.3
		c0.1,0.1,0.2,0.3,0.2,0.4c0,0.1,0,0.3-0.1,0.4c-0.1,0.1-0.2,0.2-0.3,0.3c-0.2,0.1-0.3,0.1-0.6,0.1c-0.2,0-0.4,0-0.5-0.1
		c-0.1-0.1-0.2-0.2-0.3-0.3l0.1-0.1c0.2,0.2,0.4,0.3,0.6,0.3c0.2,0,0.3-0.1,0.4-0.2c0.1-0.1,0.1-0.2,0.1-0.4c0-0.1,0-0.2-0.1-0.3
		c-0.1-0.1-0.1-0.2-0.2-0.2c-0.1,0-0.2,0-0.4-0.1v-0.2c0,0,0.1,0,0.1,0c0.2,0,0.3-0.1,0.4-0.2s0.1-0.3,0.1-0.4c0-0.2,0-0.3-0.1-0.4
		c-0.1-0.1-0.2-0.1-0.3-0.1c-0.1,0-0.3,0.1-0.4,0.2C91,36.9,91,37,90.9,37.3L90.9,37.3z"/>
	<path d="M94.4,36.5c0.4,0,0.8,0.1,1,0.4c0.3,0.3,0.4,0.6,0.4,1c0,0.3-0.1,0.6-0.3,0.9c-0.3,0.3-0.6,0.5-1.1,0.5
		c-0.5,0-0.9-0.2-1.1-0.5c-0.2-0.3-0.3-0.6-0.3-0.9c0-0.4,0.1-0.7,0.4-1C93.6,36.6,94,36.4,94.4,36.5z M94.4,36.6
		c-0.2,0-0.4,0.1-0.6,0.4c-0.1,0.2-0.2,0.5-0.2,0.9c0,0.5,0.1,0.8,0.2,1c0.1,0.2,0.3,0.2,0.5,0.2c0.1,0,0.2,0,0.3-0.1
		c0.1-0.1,0.2-0.2,0.3-0.4c0.1-0.2,0.1-0.4,0.1-0.7c0-0.4,0-0.6-0.1-0.8c-0.1-0.2-0.2-0.3-0.3-0.4C94.7,36.6,94.5,36.6,94.4,36.6z"
		/>
	<path d="M97.8,37.8c0.3,0.1,0.4,0.1,0.5,0.2c0.1,0.1,0.2,0.3,0.2,0.5c0,0.2-0.1,0.4-0.2,0.5c-0.2,0.2-0.5,0.2-0.9,0.2h-1.4v-0.1
		c0.1,0,0.2,0,0.3,0c0,0,0.1-0.1,0.1-0.1c0,0,0-0.1,0-0.3V37c0-0.1,0-0.2,0-0.3c0,0,0-0.1-0.1-0.1c0,0-0.1,0-0.3,0v-0.1h1.3
		c0.3,0,0.5,0,0.7,0.1c0.1,0.1,0.2,0.1,0.3,0.2c0.1,0.1,0.1,0.2,0.1,0.3c0,0.1,0,0.2-0.1,0.3C98.2,37.6,98,37.7,97.8,37.8z
		 M97.1,37.9v0.9l0,0.1c0,0.1,0,0.1,0.1,0.2c0,0,0.1,0.1,0.2,0.1c0.1,0,0.2,0,0.3-0.1c0.1,0,0.2-0.1,0.2-0.2c0-0.1,0.1-0.2,0.1-0.3
		c0-0.1,0-0.2-0.1-0.3c-0.1-0.1-0.1-0.2-0.2-0.2C97.4,37.9,97.3,37.9,97.1,37.9z M97.1,37.7c0.2,0,0.3,0,0.4-0.1
		c0.1,0,0.2-0.1,0.2-0.2c0-0.1,0.1-0.2,0.1-0.3c0-0.1,0-0.2-0.1-0.3c0-0.1-0.1-0.1-0.2-0.2c-0.1,0-0.2-0.1-0.4-0.1V37.7z"/>
	<path d="M100.1,38.4h-0.9L99,38.7c0,0.1-0.1,0.2-0.1,0.2c0,0.1,0,0.1,0.1,0.2c0,0,0.1,0,0.3,0v0.1h-0.9v-0.1c0.1,0,0.2-0.1,0.2-0.1
		c0.1-0.1,0.1-0.2,0.2-0.4l1-2.1h0l1,2.2c0.1,0.2,0.2,0.3,0.2,0.4c0,0,0.1,0.1,0.2,0.1v0.1H100v-0.1h0.1c0.1,0,0.2,0,0.2,0
		c0,0,0-0.1,0-0.1c0,0,0,0,0-0.1c0,0,0-0.1-0.1-0.1L100.1,38.4z M100,38.3l-0.4-0.9l-0.4,0.9H100z"/>
	<path d="M103.6,36.5v0.7h-0.1c0-0.2-0.1-0.3-0.1-0.4c-0.1-0.1-0.1-0.1-0.2-0.2c-0.1,0-0.1,0-0.3,0h-0.2v2.1c0,0.1,0,0.2,0,0.3
		c0,0,0,0.1,0.1,0.1c0,0,0.1,0,0.2,0h0.1v0.1h-1.4v-0.1h0.1c0.1,0,0.1,0,0.2,0c0,0,0.1-0.1,0.1-0.1c0,0,0-0.1,0-0.2v-2.1h-0.2
		c-0.2,0-0.3,0-0.4,0.1c-0.1,0.1-0.2,0.3-0.2,0.5h-0.1v-0.7H103.6z"/>
	<path d="M104.8,36.6v1.1h0.1c0.2,0,0.3-0.1,0.4-0.2c0.1-0.1,0.1-0.3,0.1-0.5h0.1v1.4h-0.1c0-0.2,0-0.3-0.1-0.4
		c-0.1-0.1-0.1-0.2-0.2-0.2s-0.2-0.1-0.3-0.1v0.8c0,0.1,0,0.2,0,0.3c0,0,0,0.1,0.1,0.1c0,0,0.1,0,0.2,0h0.2c0.3,0,0.5-0.1,0.6-0.2
		c0.2-0.1,0.3-0.3,0.3-0.5h0.1l-0.1,0.9h-2.3v-0.1h0.1c0.1,0,0.1,0,0.2,0c0,0,0.1-0.1,0.1-0.1c0,0,0-0.1,0-0.2v-1.8
		c0-0.1,0-0.2,0-0.2c0,0,0-0.1-0.1-0.1c-0.1,0-0.1-0.1-0.2-0.1h-0.1v-0.1h2.2v0.8H106c0-0.2-0.1-0.3-0.2-0.4
		c-0.1-0.1-0.2-0.1-0.3-0.2c-0.1,0-0.2,0-0.4,0H104.8z"/>
	<path d="M109.3,36.6c-0.1,0-0.2,0-0.3,0.1c0,0-0.1,0.1-0.1,0.3v1.9c0,0.1,0,0.2,0.1,0.3c0,0,0.1,0.1,0.3,0.1v0.1h-1.4v-0.1
		c0.1,0,0.2,0,0.2,0c0,0,0.1,0,0.1-0.1c0,0,0-0.1,0-0.2v-2.1h-0.6v0.8c0,0.3,0,0.6,0,0.8c0,0.2-0.1,0.3-0.1,0.5
		c-0.1,0.2-0.2,0.3-0.3,0.4s-0.2,0.1-0.4,0.1c-0.1,0-0.2,0-0.3-0.1c-0.1-0.1-0.1-0.2-0.1-0.3c0-0.1,0-0.2,0.1-0.2
		c0-0.1,0.1-0.1,0.2-0.1c0.2,0,0.2,0.1,0.3,0.3c0,0.1,0,0.1,0.1,0.1c0.1,0,0.2-0.1,0.3-0.2c0.1-0.1,0.2-0.3,0.2-0.5
		c0-0.2,0-0.5,0-0.9V37c0-0.1,0-0.2,0-0.3c0,0-0.1-0.1-0.1-0.1c-0.1,0-0.1,0-0.3,0v-0.1L109.3,36.6L109.3,36.6z"/>
	<path d="M110.5,37.7h0.4c0.4,0,0.7,0.1,0.8,0.2s0.3,0.3,0.3,0.5c0,0.2,0,0.3-0.1,0.4c-0.1,0.1-0.2,0.2-0.3,0.2
		c-0.1,0.1-0.3,0.1-0.6,0.1h-1.4v-0.1c0.2,0,0.3,0,0.3-0.1c0,0,0.1-0.1,0.1-0.3V37c0-0.2,0-0.3-0.1-0.3c0,0-0.1-0.1-0.3-0.1v-0.1
		h1.4v0.1c-0.1,0-0.2,0-0.3,0c0,0-0.1,0.1-0.1,0.1c0,0,0,0.1,0,0.2V37.7z M110.5,37.9v0.8c0,0.1,0,0.2,0.1,0.3
		c0,0.1,0.1,0.1,0.2,0.1c0.2,0,0.3-0.1,0.3-0.2c0.1-0.1,0.1-0.2,0.1-0.4c0-0.2,0-0.3-0.1-0.4c-0.1-0.1-0.2-0.2-0.2-0.2
		C110.8,37.9,110.6,37.9,110.5,37.9z"/>
	<path d="M113.2,37.9v0.8c0,0.1,0,0.2,0,0.3c0,0,0,0.1,0.1,0.1c0,0,0.1,0,0.2,0h0.1v0.1h-1.4v-0.1h0.1c0.1,0,0.1,0,0.2,0
		c0,0,0.1-0.1,0.1-0.1c0,0,0-0.1,0-0.2v-1.8c0-0.1,0-0.2,0-0.3c0,0,0-0.1-0.1-0.1c0,0-0.1,0-0.2,0h-0.1v-0.1h1.4v0.1h-0.1
		c-0.1,0-0.1,0-0.2,0c0,0-0.1,0.1-0.1,0.1c0,0,0,0.1,0,0.2v0.8h0.9v-0.8c0-0.1,0-0.2,0-0.3c0,0,0-0.1-0.1-0.1c0,0-0.1,0-0.2,0h-0.1
		v-0.1h1.4v0.1h-0.1c-0.1,0-0.1,0-0.2,0c0,0-0.1,0.1-0.1,0.1c0,0,0,0.1,0,0.2v1.8c0,0.1,0,0.2,0,0.3c0,0,0,0.1,0.1,0.1
		c0,0,0.1,0,0.2,0h0.1v0.1h-1.4v-0.1h0.1c0.1,0,0.1,0,0.2,0c0,0,0.1-0.1,0.1-0.1c0,0,0-0.1,0-0.2v-0.8H113.2z"/>
	<path d="M116.3,37.7h0.4c0.4,0,0.7,0.1,0.8,0.2s0.3,0.3,0.3,0.5c0,0.2,0,0.3-0.1,0.4c-0.1,0.1-0.2,0.2-0.3,0.2
		c-0.1,0.1-0.3,0.1-0.6,0.1h-1.4v-0.1c0.2,0,0.3,0,0.3-0.1c0,0,0.1-0.1,0.1-0.3V37c0-0.2,0-0.3-0.1-0.3c0,0-0.1-0.1-0.3-0.1v-0.1
		h1.4v0.1c-0.1,0-0.2,0-0.3,0c0,0-0.1,0.1-0.1,0.1c0,0,0,0.1,0,0.2V37.7z M116.3,37.9v0.8c0,0.1,0,0.2,0.1,0.3
		c0,0.1,0.1,0.1,0.2,0.1c0.2,0,0.3-0.1,0.3-0.2c0.1-0.1,0.1-0.2,0.1-0.4c0-0.2,0-0.3-0.1-0.4c-0.1-0.1-0.2-0.2-0.2-0.2
		C116.6,37.9,116.5,37.9,116.3,37.9z M119.1,39.1L119.1,39.1l-1.4,0.1v-0.1h0.1c0.1,0,0.1,0,0.2,0c0,0,0.1-0.1,0.1-0.1
		c0,0,0-0.1,0-0.2v-1.8c0-0.1,0-0.2,0-0.2c0,0,0-0.1-0.1-0.1c0,0-0.1,0-0.2,0h-0.1v-0.1h1.4v0.1H119c-0.1,0-0.1,0-0.2,0
		c0,0-0.1,0.1-0.1,0.1c0,0,0,0.1,0,0.2v1.8c0,0.1,0,0.2,0,0.2c0,0,0,0.1,0.1,0.1C118.9,39.1,119,39.1,119.1,39.1L119.1,39.1z"/>
	<path d="M121.3,36.9c0-0.1,0-0.2-0.1-0.3c0-0.1-0.1-0.1-0.3-0.1h-0.1v-0.1h1.4v0.1h-0.1c-0.1,0-0.2,0-0.2,0.1c0,0-0.1,0.2-0.1,0.3
		v1.8c0,0.2,0,0.3,0.1,0.3c0,0,0.1,0.1,0.2,0.1h0.1v0.1h-1.4v-0.1h0.1c0.1,0,0.2,0,0.2-0.1c0,0,0.1-0.2,0.1-0.3v-1.5l-0.9,1.5
		c0,0.1,0,0.2,0,0.3c0,0.1,0.1,0.1,0.3,0.1h0.1v0.1h-1.4v-0.1h0.1c0.1,0,0.2,0,0.2-0.1c0,0,0.1-0.2,0.1-0.3v-1.8c0-0.2,0-0.3,0-0.3
		c0,0-0.1-0.1-0.3-0.1h-0.1v-0.1h1.4v0.1h-0.1c-0.1,0-0.2,0-0.2,0.1c0,0.1-0.1,0.2-0.1,0.3v1.5L121.3,36.9z M120.8,36.2
		c-0.3,0-0.5,0-0.6-0.1c-0.1-0.1-0.2-0.2-0.2-0.3c0-0.1,0-0.1,0.1-0.1c0,0,0.1-0.1,0.1-0.1c0.1,0,0.2,0.1,0.2,0.2
		c0,0.1,0.1,0.1,0.1,0.2c0,0,0.1,0,0.2,0c0.1,0,0.2,0,0.2,0c0,0,0.1-0.1,0.1-0.2c0.1-0.1,0.1-0.2,0.2-0.2c0.1,0,0.1,0,0.1,0.1
		c0,0,0.1,0.1,0.1,0.1c0,0.1-0.1,0.2-0.2,0.3C121.2,36.2,121,36.2,120.8,36.2z"/>
	<path d="M123.5,39.2L123.5,39.2L123.5,39.2c0.2-0.1,0.3-0.1,0.3-0.2c0-0.1,0.1-0.2,0.1-0.3v-1.8c0-0.2,0-0.3-0.1-0.3
		c0,0-0.1-0.1-0.2-0.1h-0.1v-0.1h1.4v0.1h-0.1c-0.1,0-0.2,0-0.3,0.1c0,0-0.1,0.1-0.1,0.3v1.8c0,0.1,0,0.2,0,0.2c0,0,0.1,0,0.2,0h0.4
		c0.1,0,0.2,0,0.3,0c0,0,0-0.1,0-0.2v-1.8c0-0.2,0-0.3-0.1-0.3c0,0-0.1-0.1-0.2-0.1H125v-0.1h1.4v0.1h-0.1c-0.1,0-0.2,0-0.2,0.1
		c0,0-0.1,0.1-0.1,0.3v1.8c0,0.2,0,0.3,0.1,0.3c0,0,0.1,0.1,0.2,0.1h0.1V40h-0.1c-0.1-0.5-0.4-0.8-0.9-0.8H123.5z"/>
	<path d="M127.6,36.6v1.1h0.1c0.2,0,0.3-0.1,0.4-0.2c0.1-0.1,0.1-0.3,0.1-0.5h0.1v1.4h-0.1c0-0.2,0-0.3-0.1-0.4s-0.1-0.2-0.2-0.2
		s-0.2-0.1-0.3-0.1v0.8c0,0.1,0,0.2,0,0.3c0,0,0,0.1,0.1,0.1c0,0,0.1,0,0.2,0h0.2c0.3,0,0.5-0.1,0.6-0.2c0.2-0.1,0.3-0.3,0.3-0.5
		h0.1l-0.1,0.9h-2.3v-0.1h0.1c0.1,0,0.1,0,0.2,0c0,0,0.1-0.1,0.1-0.1c0,0,0-0.1,0-0.2v-1.8c0-0.1,0-0.2,0-0.2c0,0,0-0.1-0.1-0.1
		c-0.1,0-0.1-0.1-0.2-0.1h-0.1v-0.1h2.2v0.8h-0.1c0-0.2-0.1-0.3-0.2-0.4c-0.1-0.1-0.2-0.1-0.3-0.2c-0.1,0-0.2,0-0.4,0H127.6z"/>
	<path d="M130.3,37.9v0.8c0,0.1,0,0.2,0,0.3c0,0,0,0.1,0.1,0.1c0,0,0.1,0,0.2,0h0.1v0.1h-1.4v-0.1h0.1c0.1,0,0.1,0,0.2,0
		c0,0,0.1-0.1,0.1-0.1c0,0,0-0.1,0-0.2v-1.8c0-0.1,0-0.2,0-0.3c0,0,0-0.1-0.1-0.1c0,0-0.1,0-0.2,0h-0.1v-0.1h1.4v0.1h-0.1
		c-0.1,0-0.1,0-0.2,0c0,0-0.1,0.1-0.1,0.1c0,0,0,0.1,0,0.2v0.8h0.9v-0.8c0-0.1,0-0.2,0-0.3c0,0,0-0.1-0.1-0.1c0,0-0.1,0-0.2,0h-0.1
		v-0.1h1.4v0.1h-0.1c-0.1,0-0.1,0-0.2,0c0,0-0.1,0.1-0.1,0.1c0,0,0,0.1,0,0.2v1.8c0,0.1,0,0.2,0,0.3c0,0,0,0.1,0.1,0.1
		c0,0,0.1,0,0.2,0h0.1v0.1h-1.4v-0.1h0.1c0.1,0,0.1,0,0.2,0c0,0,0.1-0.1,0.1-0.1c0,0,0-0.1,0-0.2v-0.8H130.3z"/>
	<path d="M135,36.5v0.7h-0.1c0-0.2-0.1-0.3-0.1-0.4c-0.1-0.1-0.1-0.1-0.2-0.2c-0.1,0-0.1,0-0.3,0h-0.2v2.1c0,0.1,0,0.2,0,0.3
		c0,0,0,0.1,0.1,0.1c0,0,0.1,0,0.2,0h0.1v0.1H133v-0.1h0.1c0.1,0,0.1,0,0.2,0c0,0,0.1-0.1,0.1-0.1c0,0,0-0.1,0-0.2v-2.1h-0.2
		c-0.2,0-0.3,0-0.4,0.1c-0.1,0.1-0.2,0.3-0.2,0.5h-0.1v-0.7H135z"/>
	<path d="M136.2,38v0.7c0,0.1,0,0.2,0,0.3c0,0,0,0.1,0.1,0.1c0,0,0.1,0,0.3,0v0.1h-1.4v-0.1c0.1,0,0.2,0,0.3,0c0,0,0.1-0.1,0.1-0.1
		c0,0,0-0.1,0-0.3V37c0-0.1,0-0.2,0-0.3c0,0,0-0.1-0.1-0.1c0,0-0.1,0-0.3,0v-0.1h1.2c0.4,0,0.7,0.1,0.8,0.2c0.2,0.1,0.3,0.3,0.3,0.5
		c0,0.2-0.1,0.3-0.2,0.4c-0.1,0.1-0.3,0.2-0.4,0.3C136.7,37.9,136.5,38,136.2,38z M136.2,36.6v1.2c0,0,0.1,0,0.1,0
		c0.2,0,0.3,0,0.4-0.1c0.1-0.1,0.1-0.2,0.1-0.4c0-0.2,0-0.3-0.1-0.4C136.6,36.7,136.4,36.6,136.2,36.6L136.2,36.6z"/>
</g>
</svg>
