<svg xmlns="http://www.w3.org/2000/svg" viewBox="0 0 172.17 43.69"><defs><style>.cls-1,.cls-3,.cls-4{fill:#e11633;}.cls-2{fill:#34307d;}.cls-3{font-size:38.4px;letter-spacing:0.05em;}.cls-3,.cls-4{font-family:TimesNewRomanPSMT, Times New Roman;}.cls-4{font-size:19.71px;letter-spacing:0.05em;}.cls-5{letter-spacing:0.04em;}.cls-6{letter-spacing:0.05em;}.cls-7{letter-spacing:0.03em;}.cls-8{font-size:5.64px;font-family:TimesNewRomanPS-BoldMT, Times New Roman;font-weight:700;}.cls-9{letter-spacing:-0.13em;}.cls-10{letter-spacing:-0.02em;}.cls-11{letter-spacing:-0.06em;}.cls-12{letter-spacing:-0.09em;}.cls-13{letter-spacing:-0.01em;}</style></defs><title>logo</title><g id="Слой_2" data-name="Слой 2"><g id="menu"><path class="cls-1" d="M46.81,11.35C43.93,3.88,31.25,1.8,18.48,6.72,6.34,11.39-1.49,20.69.24,28l.12.49c.06.21.13.43.21.64a5.68,5.68,0,0,0,.32.71c3.38,6.89,15.66,8.68,28,3.92C41.67,28.87,49.68,18.82,46.81,11.35Zm-44.09,20A7.88,7.88,0,0,1,1.23,28.9a7.64,7.64,0,0,1-.52-2.8v0c.36-5,5.75-10.6,13.57-13.61C23.67,8.84,33,10.36,35.1,15.86S31.33,28.73,21.94,32.35C14.11,35.37,6.31,34.8,2.72,31.32ZM26.39,33a31.25,31.25,0,0,1-16,2A30,30,0,0,0,24,33c10.56-4.07,17.2-12.38,14.82-18.56S26,6.52,15.39,10.59A30.2,30.2,0,0,0,4,18,31.34,31.34,0,0,1,17.14,9c11.34-4.36,22.6-2.52,25.16,4.12S37.73,28.64,26.39,33Z"/><path class="cls-2" d="M38.84,14.42C36.45,8.23,26,6.52,15.39,10.59A30.2,30.2,0,0,0,4,18c-3,3.24-4.43,6.82-3.78,10l.12.49c.06.21.13.43.21.64a5.68,5.68,0,0,0,.32.71c1.52,2.94,5,4.73,9.45,5.2h0A30,30,0,0,0,24,33C34.58,28.91,41.22,20.6,38.84,14.42ZM21.94,32.35c-7.83,3-15.63,2.45-19.22-1A7.88,7.88,0,0,1,1.23,28.9a7.64,7.64,0,0,1-.52-2.8v0c.36-5,5.75-10.6,13.57-13.61C23.67,8.84,33,10.36,35.1,15.86S31.33,28.73,21.94,32.35Z"/><text class="cls-3" transform="translate(61.58 31.92)">Э</text><text class="cls-4" transform="translate(89.61 25.15)">кле<tspan class="cls-5" x="31.12" y="0">к</tspan><tspan class="cls-6" x="41.43" y="0">ти</tspan><tspan class="cls-7" x="62.56" y="0">к</tspan><tspan x="72.83" y="0">а</tspan></text><text class="cls-8" transform="translate(90.92 33.99)">ОБ<tspan class="cls-9" x="8.12" y="0">Р</tspan><tspan class="cls-10" x="10.84" y="0">А</tspan><tspan x="14.78" y="0">ЗО</tspan><tspan class="cls-11" x="22.14" y="0">В</tspan><tspan class="cls-12" x="25.55" y="0">А</tspan><tspan x="29.13" y="0">Т</tspan><tspan class="cls-13" x="32.89" y="0">Е</tspan><tspan x="36.58" y="0">ЛЬНЫЙ ЦЕНТР</tspan></text></g></g></svg>